<svg width="54" height="54" viewBox="0 0 54 54" fill="none" xmlns="http://www.w3.org/2000/svg">
<path opacity="0.2" d="M27 54C41.9117 54 54 41.9117 54 27C54 12.0883 41.9117 0 27 0C12.0883 0 0 12.0883 0 27C0 41.9117 12.0883 54 27 54Z" fill="white"/>
<path fill-rule="evenodd" clip-rule="evenodd" d="M26.2907 10.7371C27.0669 10.2508 28.108 10.7063 28.4792 11.4834C32.4721 18.3434 36.4832 25.1958 40.4657 32.0636C41.1407 33.1084 40.1256 34.5596 38.9106 34.3898C37.9266 34.2637 37.5372 33.2756 37.0984 32.5345C35.128 29.1662 33.1912 25.7774 31.1896 22.4271C30.7015 21.5316 29.2529 21.5059 28.7181 22.3653C27.407 24.4419 26.2881 26.6368 24.9562 28.7005C24.302 29.6629 22.6976 29.4184 22.2822 28.366C21.8512 27.486 22.5652 26.6703 22.9624 25.9318C24.6161 23.0446 26.3634 20.2064 27.9548 17.2884C27.9366 16.5268 27.3655 15.9247 27.0384 15.2685C26.5762 14.4477 26.0648 13.6551 25.626 12.8214C25.2366 12.0958 25.5274 11.0948 26.2907 10.7371Z" fill="white"/>
<path fill-rule="evenodd" clip-rule="evenodd" d="M22.4575 16.7069C22.782 16.0868 23.3662 15.4975 24.132 15.5876C25.2925 15.6004 26.0428 17.062 25.3496 18.0012C23.239 21.6603 21.0894 25.2962 18.9761 28.9501C18.3738 29.7941 18.8774 31.1476 19.9574 31.2531C22.39 31.3792 24.833 31.2402 27.2682 31.3097C28.2755 31.2505 29.1478 32.3724 28.7869 33.3168C28.6 33.9652 27.951 34.4181 27.276 34.4104C23.5194 34.4799 19.7523 34.3461 16.0009 34.4696C15.1104 35.1695 14.7547 36.3248 14.1394 37.246C13.615 38.0283 13.2749 39.23 12.1975 39.3895C11.3486 39.5593 10.6061 38.9083 10.3828 38.1363V37.5986C10.8423 36.505 11.5147 35.5169 12.0989 34.4876C15.5492 28.559 19.0124 22.6381 22.4575 16.7069Z" fill="white"/>
<path fill-rule="evenodd" clip-rule="evenodd" d="M29.1527 25.8932C29.9238 25.394 30.9778 25.798 31.3672 26.5853C33.1326 29.578 34.8669 32.5911 36.6219 35.5915C36.814 35.8951 37.0243 36.2837 37.4422 36.2734C38.9818 36.3814 40.5265 36.2502 42.0634 36.3274C42.8682 36.3737 43.5899 37.1174 43.5406 37.9253C43.538 38.7951 42.6995 39.5284 41.8297 39.4229C33.8492 39.4281 25.8686 39.4281 17.8906 39.4229C17.0339 39.513 16.2343 38.7745 16.2291 37.9305C16.1746 37.0453 17.0157 36.2682 17.8932 36.312C22.2236 36.2939 26.5566 36.33 30.8844 36.2965C31.9228 36.3145 32.6835 35.0228 32.1123 34.1453C30.9726 32.1048 29.755 30.108 28.6023 28.0778C28.1195 27.3624 28.3765 26.292 29.1527 25.8932Z" fill="white"/>
</svg>
