<svg width="224" height="760" viewBox="0 0 224 760" fill="none" xmlns="http://www.w3.org/2000/svg">
<path d="M117 681.268L117 -73" stroke="white" stroke-width="18" stroke-linecap="square"/>
<g filter="url(#filter0_f_43_7404)">
<path d="M121 691L121 -63.2675" stroke="#632EE4" stroke-width="18" stroke-linecap="square"/>
</g>
<g style="mix-blend-mode:color-dodge" filter="url(#filter1_f_43_7404)">
<path d="M121 688.08L121 -66.1873" stroke="#632EE4" stroke-width="18" stroke-linecap="square"/>
</g>
<g style="mix-blend-mode:plus-lighter" filter="url(#filter2_f_43_7404)">
<path d="M121 681.268L121 -73" stroke="#632EE4" stroke-width="18" stroke-linecap="square"/>
</g>
<g filter="url(#filter3_f_43_7404)">
<path d="M71 -63L83.5691 -36.0411L102.171 -21.0063L138.37 -5.97147H150.436L162 28.2457L150.436 47.9464L122.785 59.3521L102.171 65.5734L83.5691 82.682V110.678V137.118L107.702 158.893L150.436 171.854L162 209.7V229.401L150.436 250.138L122.785 261.544L102.171 275.542L78.5414 298.354L83.5691 318.054L93.1215 334.126L107.702 341.384L133.845 346.05L142.895 350.716L162 364.196V379.23V407.226L150.436 426.927H142.895C138.538 427.618 128.415 429.727 122.785 432.63C117.154 435.533 106.696 437.641 102.171 438.333L93.1215 447.665L102.171 458.033L107.702 472.031L138.37 479.808L162 494.843V525.949L150.436 531.652C146.917 531.652 138.672 531.652 133.845 531.652C129.019 531.652 114.405 535.454 107.702 537.355L93.1215 551.353L83.5691 572.09L93.1215 580.386L94.6298 585.052L115.746 595.42L133.845 604.752V615.121L142.895 630.156L138.37 643.635L122.785 657.633L107.702 670.594L102.171 682" stroke="white" stroke-width="1.5" stroke-linejoin="round"/>
</g>
<g style="mix-blend-mode:color-dodge" filter="url(#filter4_f_43_7404)">
<path d="M71.5 -63L84.0691 -36.0411L102.671 -21.0063L138.87 -5.97147H150.936L162.5 28.2457L150.936 47.9464L123.285 59.3521L102.671 65.5734L84.0691 82.682V110.678V137.118L108.202 158.893L150.936 171.854L162.5 209.7V229.401L150.936 250.138L123.285 261.544L102.671 275.542L79.0414 298.354L84.0691 318.054L93.6215 334.126L108.202 341.384L134.345 346.05L143.395 350.716L162.5 364.196V379.23V407.226L150.936 426.927H143.395C139.038 427.618 128.915 429.727 123.285 432.63C117.654 435.533 107.196 437.641 102.671 438.333L93.6215 447.665L102.671 458.033L108.202 472.031L138.87 479.808L162.5 494.843V525.949L150.936 531.652C147.417 531.652 139.172 531.652 134.345 531.652C129.519 531.652 114.905 535.454 108.202 537.355L93.6215 551.353L84.0691 572.09L93.6215 580.386L95.1298 585.052L116.246 595.42L134.345 604.752V615.121L143.395 630.156L138.87 643.635L123.285 657.633L108.202 670.594L102.671 682" stroke="white" stroke-width="1.5" stroke-linejoin="round"/>
</g>
<g style="mix-blend-mode:plus-lighter" filter="url(#filter5_f_43_7404)">
<path d="M71 -63L83.5691 -36.0411L102.171 -21.0063L138.37 -5.97147H150.436L162 28.2457L150.436 47.9464L122.785 59.3521L102.171 65.5734L83.5691 82.682V110.678V137.118L107.702 158.893L150.436 171.854L162 209.7V229.401L150.436 250.138L122.785 261.544L102.171 275.542L78.5414 298.354L83.5691 318.054L93.1215 334.126L107.702 341.384L133.845 346.05L142.895 350.716L162 364.196V379.23V407.226L150.436 426.927H142.895C138.538 427.618 128.415 429.727 122.785 432.63C117.154 435.533 106.696 437.641 102.171 438.333L93.1215 447.665L102.171 458.033L107.702 472.031L138.37 479.808L162 494.843V525.949L150.436 531.652C146.917 531.652 138.672 531.652 133.845 531.652C129.019 531.652 114.405 535.454 107.702 537.355L93.1215 551.353L83.5691 572.09L93.1215 580.386L94.6298 585.052L115.746 595.42L133.845 604.752V615.121L142.895 630.156L138.37 643.635L122.785 657.633L107.702 670.594L102.171 682" stroke="white" stroke-width="1.5" stroke-linejoin="round"/>
</g>
<g filter="url(#filter6_f_43_7404)">
<path d="M140.5 -62L149 -46.5L140.5 -32L113.5 -18.5C96.7 -7.7 71.5 7 61 13L66.5 35L72.5 47.5L107 61.5L127 79.5L134.5 96L140.5 122V158.5C135.833 160.833 125.2 166.8 120 172C114.8 177.2 92.1667 185.833 81.5 189.5V218.5V234.5L96 245.5C96 245.5 97.1 245.5 101.5 245.5C107 245.5 113.5 253 113.5 256.5C113.5 260 127 259.5 127 267.5C127 273.9 136 285.833 140.5 291V317.5L134.5 332L120 343.5C112 351.333 96 368.1 96 372.5C96 378 90.5 385.5 81.5 390C72.5 394.5 75 410 81.5 413.5C88 417 96 417.5 101.5 426C107 434.5 113 431 120 440C125.6 447.2 141.667 472.333 149 484L127 501.5L81.5 509.5L74.5 521.5L69 535C66.8333 537.333 64.9 542.4 74.5 544C84.1 545.6 96.5 550.667 101.5 553H113.5L127 560.5L134.5 571.5V581.5L113.5 599.5C111.333 601.5 105.9 605.8 101.5 607C97.1 608.2 86.3333 613.5 81.5 616L69 630.5V639.5V651L89 662L120 671V683" stroke="white" stroke-width="1.5" stroke-linejoin="round"/>
</g>
<g style="mix-blend-mode:color-dodge" filter="url(#filter7_f_43_7404)">
<path d="M141 -62L149.5 -46.5L141 -32L114 -18.5C97.2 -7.7 72 7 61.5 13L67 35L73 47.5L107.5 61.5L127.5 79.5L135 96L141 122V158.5C136.333 160.833 125.7 166.8 120.5 172C115.3 177.2 92.6667 185.833 82 189.5V218.5V234.5L96.5 245.5C96.5 245.5 97.6 245.5 102 245.5C107.5 245.5 114 253 114 256.5C114 260 127.5 259.5 127.5 267.5C127.5 273.9 136.5 285.833 141 291V317.5L135 332L120.5 343.5C112.5 351.333 96.5 368.1 96.5 372.5C96.5 378 91 385.5 82 390C73 394.5 75.5 410 82 413.5C88.5 417 96.5 417.5 102 426C107.5 434.5 113.5 431 120.5 440C126.1 447.2 142.167 472.333 149.5 484L127.5 501.5L82 509.5L75 521.5L69.5 535C67.3333 537.333 65.4 542.4 75 544C84.6 545.6 97 550.667 102 553H114L127.5 560.5L135 571.5V581.5L114 599.5C111.833 601.5 106.4 605.8 102 607C97.6 608.2 86.8333 613.5 82 616L69.5 630.5V639.5V651L89.5 662L120.5 671V683" stroke="white" stroke-width="1.5" stroke-linejoin="round"/>
</g>
<g style="mix-blend-mode:plus-lighter" filter="url(#filter8_f_43_7404)">
<path d="M140.5 -62L149 -46.5L140.5 -32L113.5 -18.5C96.7 -7.7 71.5 7 61 13L66.5 35L72.5 47.5L107 61.5L127 79.5L134.5 96L140.5 122V158.5C135.833 160.833 125.2 166.8 120 172C114.8 177.2 92.1667 185.833 81.5 189.5V218.5V234.5L96 245.5C96 245.5 97.1 245.5 101.5 245.5C107 245.5 113.5 253 113.5 256.5C113.5 260 127 259.5 127 267.5C127 273.9 136 285.833 140.5 291V317.5L134.5 332L120 343.5C112 351.333 96 368.1 96 372.5C96 378 90.5 385.5 81.5 390C72.5 394.5 75 410 81.5 413.5C88 417 96 417.5 101.5 426C107 434.5 113 431 120 440C125.6 447.2 141.667 472.333 149 484L127 501.5L81.5 509.5L74.5 521.5L69 535C66.8333 537.333 64.9 542.4 74.5 544C84.1 545.6 96.5 550.667 101.5 553H113.5L127 560.5L134.5 571.5V581.5L113.5 599.5C111.333 601.5 105.9 605.8 101.5 607C97.1 608.2 86.3333 613.5 81.5 616L69 630.5V639.5V651L89 662L120 671V683" stroke="white" stroke-width="1.5" stroke-linejoin="round"/>
</g>
<defs>
<filter id="filter0_f_43_7404" x="52" y="-132.268" width="138" height="892.268" filterUnits="userSpaceOnUse" color-interpolation-filters="sRGB">
<feFlood flood-opacity="0" result="BackgroundImageFix"/>
<feBlend mode="normal" in="SourceGraphic" in2="BackgroundImageFix" result="shape"/>
<feGaussianBlur stdDeviation="30" result="effect1_foregroundBlur_43_7404"/>
</filter>
<filter id="filter1_f_43_7404" x="52" y="-135.187" width="138" height="892.268" filterUnits="userSpaceOnUse" color-interpolation-filters="sRGB">
<feFlood flood-opacity="0" result="BackgroundImageFix"/>
<feBlend mode="normal" in="SourceGraphic" in2="BackgroundImageFix" result="shape"/>
<feGaussianBlur stdDeviation="30" result="effect1_foregroundBlur_43_7404"/>
</filter>
<filter id="filter2_f_43_7404" x="88" y="-106" width="66" height="820.268" filterUnits="userSpaceOnUse" color-interpolation-filters="sRGB">
<feFlood flood-opacity="0" result="BackgroundImageFix"/>
<feBlend mode="normal" in="SourceGraphic" in2="BackgroundImageFix" result="shape"/>
<feGaussianBlur stdDeviation="12" result="effect1_foregroundBlur_43_7404"/>
</filter>
<filter id="filter3_f_43_7404" x="10.3203" y="-123.317" width="212.43" height="865.644" filterUnits="userSpaceOnUse" color-interpolation-filters="sRGB">
<feFlood flood-opacity="0" result="BackgroundImageFix"/>
<feBlend mode="normal" in="SourceGraphic" in2="BackgroundImageFix" result="shape"/>
<feGaussianBlur stdDeviation="30" result="effect1_foregroundBlur_43_7404"/>
</filter>
<filter id="filter4_f_43_7404" x="10.8203" y="-123.317" width="212.43" height="865.644" filterUnits="userSpaceOnUse" color-interpolation-filters="sRGB">
<feFlood flood-opacity="0" result="BackgroundImageFix"/>
<feBlend mode="normal" in="SourceGraphic" in2="BackgroundImageFix" result="shape"/>
<feGaussianBlur stdDeviation="30" result="effect1_foregroundBlur_43_7404"/>
</filter>
<filter id="filter5_f_43_7404" x="46.3203" y="-87.3169" width="140.43" height="793.644" filterUnits="userSpaceOnUse" color-interpolation-filters="sRGB">
<feFlood flood-opacity="0" result="BackgroundImageFix"/>
<feBlend mode="normal" in="SourceGraphic" in2="BackgroundImageFix" result="shape"/>
<feGaussianBlur stdDeviation="12" result="effect1_foregroundBlur_43_7404"/>
</filter>
<filter id="filter6_f_43_7404" x="0.25" y="-122.361" width="209.5" height="865.361" filterUnits="userSpaceOnUse" color-interpolation-filters="sRGB">
<feFlood flood-opacity="0" result="BackgroundImageFix"/>
<feBlend mode="normal" in="SourceGraphic" in2="BackgroundImageFix" result="shape"/>
<feGaussianBlur stdDeviation="30" result="effect1_foregroundBlur_43_7404"/>
</filter>
<filter id="filter7_f_43_7404" x="0.75" y="-122.361" width="209.5" height="865.361" filterUnits="userSpaceOnUse" color-interpolation-filters="sRGB">
<feFlood flood-opacity="0" result="BackgroundImageFix"/>
<feBlend mode="normal" in="SourceGraphic" in2="BackgroundImageFix" result="shape"/>
<feGaussianBlur stdDeviation="30" result="effect1_foregroundBlur_43_7404"/>
</filter>
<filter id="filter8_f_43_7404" x="36.25" y="-86.3606" width="137.5" height="793.361" filterUnits="userSpaceOnUse" color-interpolation-filters="sRGB">
<feFlood flood-opacity="0" result="BackgroundImageFix"/>
<feBlend mode="normal" in="SourceGraphic" in2="BackgroundImageFix" result="shape"/>
<feGaussianBlur stdDeviation="12" result="effect1_foregroundBlur_43_7404"/>
</filter>
</defs>
</svg>
