<svg width="20" height="18" viewBox="0 0 20 18" fill="none" xmlns="http://www.w3.org/2000/svg">
<path d="M17.9006 4.85709C17.9127 5.03438 17.9127 5.21166 17.9127 5.39058C17.9127 10.8424 13.8159 17.13 6.32477 17.13V17.1267C4.11187 17.13 1.94493 16.4878 0.0820312 15.277C0.403801 15.3162 0.727191 15.3358 1.05138 15.3367C2.88525 15.3383 4.66671 14.7149 6.10945 13.5671C4.36671 13.5336 2.83848 12.3824 2.30461 10.7019C2.91509 10.8211 3.54412 10.7966 4.14332 10.6308C2.24332 10.2419 0.876381 8.5507 0.876381 6.58666V6.53438C1.44251 6.85382 2.07638 7.0311 2.72477 7.0507C0.935251 5.83911 0.383641 3.42735 1.46429 1.54173C3.53203 4.11934 6.58283 5.68634 9.85785 5.85219C9.52965 4.41918 9.97795 2.91755 11.0361 1.91019C12.6764 0.348099 15.2563 0.428169 16.7982 2.08911C17.7103 1.90692 18.5845 1.56787 19.3845 1.08748C19.0805 2.04254 18.4442 2.85382 17.5942 3.36934C18.4014 3.27294 19.1901 3.05398 19.9329 2.71983C19.3861 3.5499 18.6974 4.27294 17.9006 4.85709Z" fill="#EFEDFD" fill-opacity="0.3"/>
</svg>
